<svg xmlns="http://www.w3.org/2000/svg" xmlns:xlink="http://www.w3.org/1999/xlink" zoomAndPan="magnify" preserveAspectRatio="xMidYMid meet" version="1.0" viewBox="8.84 147.12 358.77 78.79"><defs><g/></defs><g fill="#ffffff" fill-opacity="1" data-darkreader-inline-fill="" style="--darkreader-inline-fill: #181a1b;"><g transform="translate(248.593639, 201.350934)"><g><path d="M 13.890625 4.453125 L 9.65625 0.203125 L -1.390625 -29.046875 L 6.65625 -29.046875 L 12.375 -24.828125 L 15.921875 -14.796875 L 20.46875 -29.046875 L 28.296875 -29.046875 L 32.140625 -25.09375 L 21.046875 4.453125 Z M 10.203125 -0.375 L 17.09375 -0.375 L 27.625 -28.3125 L 21 -28.3125 L 14.03125 -6.453125 L 6.296875 -28.3125 L -0.328125 -28.3125 Z M 28.03125 -27.359375 L 28.5 -27.359375 L 28.5 -27.796875 L 28.359375 -27.953125 L 28.25 -27.953125 Z M 14 -8.75 L 15.546875 -13.625 L 11.765625 -24.375 L 7.3125 -27.6875 Z M 28.625 -26.609375 L 29.234375 -26.609375 L 29.234375 -27.046875 L 29.046875 -27.234375 L 28.625 -27.234375 Z M 27.890625 -25.875 L 28.515625 -25.875 L 28.515625 -26.484375 L 27.890625 -26.484375 Z M 29.359375 -25.890625 L 29.953125 -25.890625 L 29.953125 -26.3125 L 29.765625 -26.484375 L 29.359375 -26.484375 Z M 27.203125 -25.140625 L 27.78125 -25.140625 L 27.78125 -25.78125 L 27.4375 -25.78125 Z M 28.625 -25.15625 L 29.234375 -25.15625 L 29.234375 -25.78125 L 28.625 -25.78125 Z M 30.09375 -25.15625 L 30.6875 -25.15625 L 30.6875 -25.546875 L 30.484375 -25.75 L 30.09375 -25.75 Z M 27.890625 -24.421875 L 28.515625 -24.421875 L 28.515625 -25.03125 L 27.890625 -25.03125 Z M 29.359375 -24.421875 L 29.96875 -24.421875 L 29.96875 -25.03125 L 29.359375 -25.03125 Z M 30.8125 -24.421875 L 31.09375 -24.421875 L 31.28125 -24.9375 L 31.1875 -25.03125 L 30.8125 -25.03125 Z M 26.9375 -24.40625 L 27.0625 -24.40625 L 27.0625 -24.75 Z M 27.140625 -23.6875 L 27.796875 -23.6875 L 27.796875 -24.3125 L 27.140625 -24.3125 Z M 28.625 -23.6875 L 29.234375 -23.6875 L 29.234375 -24.3125 L 28.625 -24.3125 Z M 30.078125 -23.6875 L 30.6875 -23.6875 L 30.6875 -24.3125 L 30.078125 -24.3125 Z M 26.40625 -22.953125 L 27.0625 -22.953125 L 27.0625 -23.609375 L 26.640625 -23.609375 L 26.40625 -23.015625 Z M 27.890625 -22.953125 L 28.515625 -22.953125 L 28.515625 -23.609375 L 27.890625 -23.609375 Z M 29.34375 -22.953125 L 29.96875 -22.953125 L 29.96875 -23.578125 L 29.34375 -23.578125 Z M 27.140625 -22.203125 L 27.796875 -22.203125 L 27.796875 -22.859375 L 27.140625 -22.859375 Z M 28.609375 -22.203125 L 29.25 -22.203125 L 29.25 -22.859375 L 28.609375 -22.859375 Z M 30.078125 -22.234375 L 30.28125 -22.234375 L 30.5 -22.859375 L 30.078125 -22.859375 Z M 26.109375 -22.203125 L 26.34375 -22.203125 L 26.34375 -22.84375 Z M 26.40625 -21.46875 L 27.078125 -21.46875 L 27.078125 -22.140625 L 26.40625 -22.140625 Z M 27.859375 -21.46875 L 28.515625 -21.46875 L 28.515625 -22.140625 L 27.859375 -22.140625 Z M 29.34375 -21.5 L 29.96875 -21.5 L 29.96875 -22.125 L 29.34375 -22.125 Z M 25.671875 -20.734375 L 26.34375 -20.734375 L 26.34375 -21.4375 L 25.8125 -21.4375 L 25.671875 -21.0625 Z M 27.125 -20.75 L 27.796875 -20.75 L 27.796875 -21.40625 L 27.125 -21.40625 Z M 28.609375 -20.75 L 29.25 -20.75 L 29.25 -21.40625 L 28.609375 -21.40625 Z M 25.265625 -20 L 25.625 -20 L 25.625 -20.6875 L 25.53125 -20.6875 Z M 26.390625 -20 L 27.078125 -20 L 27.078125 -20.6875 L 26.390625 -20.6875 Z M 27.859375 -20.015625 L 28.546875 -20.015625 L 28.546875 -20.6875 L 27.859375 -20.6875 Z M 29.34375 -20.015625 L 29.4375 -20.015625 L 29.6875 -20.671875 L 29.34375 -20.671875 Z M 25.65625 -19.28125 L 26.375 -19.28125 L 26.375 -19.96875 L 25.65625 -19.96875 Z M 27.125 -19.28125 L 27.828125 -19.28125 L 27.828125 -19.953125 L 27.125 -19.953125 Z M 28.609375 -19.28125 L 29.171875 -19.28125 L 29.28125 -19.59375 L 29.28125 -19.953125 L 28.609375 -19.953125 Z M 24.90625 -18.546875 L 25.625 -18.546875 L 25.625 -19.234375 L 24.96875 -19.234375 L 24.90625 -19.046875 Z M 26.390625 -18.546875 L 27.078125 -18.546875 L 27.078125 -19.234375 L 26.390625 -19.234375 Z M 27.859375 -18.546875 L 28.546875 -18.546875 L 28.546875 -19.234375 L 27.859375 -19.234375 Z M 20.53125 3.765625 L 20.984375 2.546875 L 20.65625 2.546875 L 20.65625 2.03125 L 21.1875 2.03125 L 21.375 1.515625 L 21.375 1.296875 L 21.453125 1.296875 L 21.796875 0.34375 L 21.375 0.34375 L 21.375 -0.1875 L 21.90625 -0.1875 L 21.90625 0.109375 L 22.09375 -0.390625 L 22.09375 -0.921875 L 22.296875 -0.921875 L 22.625 -1.828125 L 22.09375 -1.828125 L 22.09375 -2.375 L 22.640625 -2.375 L 22.640625 -1.859375 L 22.890625 -2.546875 L 22.796875 -2.546875 L 22.796875 -3.109375 L 23.109375 -3.109375 L 23.703125 -4.71875 L 23.515625 -4.71875 L 23.515625 -5.328125 L 23.9375 -5.328125 L 24.53125 -6.90625 L 24.234375 -6.90625 L 24.234375 -7.515625 L 24.75 -7.515625 L 24.953125 -8.046875 L 24.953125 -8.25 L 25.03125 -8.25 L 25.34375 -9.078125 L 24.953125 -9.078125 L 24.953125 -9.734375 L 25.59375 -9.734375 L 25.671875 -9.953125 L 25.671875 -10.46875 L 25.859375 -10.46875 L 26.15625 -11.25 L 25.671875 -11.25 L 25.671875 -11.921875 L 26.34375 -11.921875 L 26.34375 -11.765625 L 26.4375 -11.96875 L 26.390625 -11.96875 L 26.390625 -12.65625 L 26.671875 -12.65625 L 26.96875 -13.421875 L 26.390625 -13.421875 L 26.390625 -14.140625 L 27.109375 -14.140625 L 27.109375 -13.78125 L 27.25 -14.15625 L 27.109375 -14.15625 L 27.109375 -14.875 L 27.515625 -14.875 L 27.78125 -15.609375 L 27.109375 -15.609375 L 27.109375 -16.328125 L 26.375 -16.328125 L 26.375 -17.0625 L 25.65625 -17.0625 L 25.65625 -17.796875 L 26.375 -17.796875 L 26.375 -18.515625 L 25.65625 -18.515625 L 25.65625 -17.796875 L 24.90625 -17.796875 L 24.90625 -18.515625 L 24.703125 -18.515625 L 24.4375 -17.796875 L 24.90625 -17.796875 L 24.90625 -17.0625 L 24.171875 -17.0625 L 24.171875 -16.34375 L 23.890625 -16.34375 L 23.609375 -15.59375 L 24.171875 -15.59375 L 24.171875 -14.890625 L 23.484375 -14.890625 L 23.484375 -15.265625 L 23.34375 -14.859375 L 23.4375 -14.859375 L 23.4375 -14.171875 L 23.0625 -14.171875 L 22.765625 -13.375 L 23.4375 -13.375 L 23.4375 -12.71875 L 22.765625 -12.71875 L 22.765625 -13.359375 L 22.5 -12.640625 L 22.6875 -12.640625 L 22.6875 -11.984375 L 22.25 -11.984375 L 21.65625 -10.453125 L 21.9375 -10.453125 L 21.9375 -9.8125 L 21.4375 -9.8125 L 21.203125 -9.234375 L 21.203125 -9.09375 L 21.140625 -9.09375 L 20.84375 -8.234375 L 21.203125 -8.234375 L 21.203125 -7.640625 L 20.609375 -7.640625 L 20.46875 -7.265625 L 20.46875 -6.921875 L 20.328125 -6.921875 L 20 -6.046875 L 20.46875 -6.046875 L 20.46875 -5.46875 L 19.890625 -5.46875 L 19.890625 -5.75 L 19.734375 -5.3125 L 19.734375 -4.734375 L 19.5 -4.734375 L 18.890625 -3.09375 L 18.96875 -3.09375 L 18.96875 -2.5625 L 18.6875 -2.5625 L 18.046875 -0.90625 L 18.234375 -0.90625 L 18.234375 -0.390625 L 17.859375 -0.390625 L 17.59375 0.3125 L 17.828125 0.578125 L 18.234375 0.578125 L 18.234375 1.0625 L 18.453125 1.328125 L 18.453125 1.3125 L 18.953125 1.3125 L 18.953125 1.796875 L 18.875 1.796875 L 19.203125 2.1875 L 19.203125 2.03125 L 19.6875 2.03125 L 19.6875 2.515625 L 19.484375 2.515625 L 19.9375 3.046875 L 19.9375 2.765625 L 20.421875 2.765625 L 20.421875 3.25 L 20.09375 3.25 Z M 27.125 -17.796875 L 27.828125 -17.796875 L 27.828125 -18.5 L 27.125 -18.5 Z M 28.578125 -17.828125 L 28.625 -17.828125 L 28.875 -18.5 L 28.578125 -18.5 Z M 26.390625 -17.0625 L 27.109375 -17.0625 L 27.109375 -17.78125 L 26.390625 -17.78125 Z M 27.84375 -17.09375 L 28.328125 -17.09375 L 28.5625 -17.65625 L 28.5625 -17.78125 L 27.84375 -17.78125 Z M 24.90625 -16.328125 L 24.90625 -17.0625 L 25.65625 -17.0625 L 25.65625 -16.328125 Z M 27.109375 -16.34375 L 27.828125 -16.34375 L 27.828125 -17.046875 L 27.109375 -17.046875 Z M 24.203125 -15.609375 L 24.203125 -16.328125 L 24.90625 -16.328125 L 24.90625 -15.609375 Z M 25.65625 -15.609375 L 25.65625 -16.328125 L 26.375 -16.328125 L 26.375 -15.609375 Z M 27.84375 -15.75 L 28.0625 -16.328125 L 27.84375 -16.328125 Z M 26.390625 -14.875 L 26.390625 -15.609375 L 27.109375 -15.609375 L 27.109375 -14.875 Z M 24.9375 -14.890625 L 24.9375 -15.59375 L 25.625 -15.59375 L 25.625 -14.890625 Z M 25.65625 -14.15625 L 25.65625 -14.875 L 26.375 -14.875 L 26.375 -14.15625 Z M 24.203125 -14.15625 L 24.203125 -14.859375 L 24.890625 -14.859375 L 24.890625 -14.15625 Z M 24.9375 -13.4375 L 24.9375 -14.140625 L 25.625 -14.140625 L 25.625 -13.4375 Z M 23.484375 -13.4375 L 23.484375 -14.109375 L 24.15625 -14.109375 L 24.15625 -13.4375 Z M 24.21875 -12.703125 L 24.21875 -13.40625 L 24.890625 -13.40625 L 24.890625 -12.703125 Z M 25.671875 -12.703125 L 25.671875 -13.40625 L 26.375 -13.40625 L 26.375 -12.703125 Z M 23.484375 -11.984375 L 23.484375 -12.65625 L 24.15625 -12.65625 L 24.15625 -11.984375 Z M 24.9375 -11.984375 L 24.9375 -12.65625 L 25.625 -12.65625 L 25.625 -11.984375 Z M 22.765625 -11.265625 L 22.765625 -11.921875 L 23.421875 -11.921875 L 23.421875 -11.265625 Z M 24.21875 -11.25 L 24.21875 -11.921875 L 24.890625 -11.921875 L 24.890625 -11.25 Z M 24.953125 -10.53125 L 24.953125 -11.203125 L 25.609375 -11.203125 L 25.609375 -10.53125 Z M 22.046875 -10.53125 L 22.046875 -11.1875 L 22.6875 -11.1875 L 22.6875 -10.53125 Z M 23.5 -10.53125 L 23.5 -11.1875 L 24.15625 -11.1875 L 24.15625 -10.53125 Z M 22.765625 -9.8125 L 22.765625 -10.453125 L 23.421875 -10.453125 L 23.421875 -9.8125 Z M 24.21875 -9.8125 L 24.21875 -10.453125 L 24.875 -10.453125 L 24.875 -9.8125 Z M 23.5 -9.078125 L 23.5 -9.734375 L 24.140625 -9.734375 L 24.140625 -9.078125 Z M 22.046875 -9.09375 L 22.046875 -9.71875 L 22.6875 -9.71875 L 22.6875 -9.09375 Z M 22.78125 -8.359375 L 22.78125 -9 L 23.390625 -9 L 23.390625 -8.359375 Z M 24.234375 -8.359375 L 24.234375 -9 L 24.875 -9 L 24.875 -8.359375 Z M 21.328125 -8.359375 L 21.328125 -8.96875 L 21.9375 -8.96875 L 21.9375 -8.359375 Z M 22.046875 -7.640625 L 22.046875 -8.25 L 22.6875 -8.25 L 22.6875 -7.640625 Z M 23.5 -7.625 L 23.5 -8.25 L 24.140625 -8.25 L 24.140625 -7.625 Z M 21.328125 -6.90625 L 21.328125 -7.515625 L 21.9375 -7.515625 L 21.9375 -6.90625 Z M 22.78125 -6.90625 L 22.78125 -7.515625 L 23.390625 -7.515625 L 23.390625 -6.90625 Z M 20.609375 -6.1875 L 20.609375 -6.78125 L 21.203125 -6.78125 L 21.203125 -6.1875 Z M 22.0625 -6.1875 L 22.0625 -6.78125 L 22.65625 -6.78125 L 22.65625 -6.1875 Z M 23.515625 -6.171875 L 23.515625 -6.78125 L 24.140625 -6.78125 L 24.140625 -6.171875 Z M 21.34375 -5.453125 L 21.34375 -6.046875 L 21.921875 -6.046875 L 21.921875 -5.453125 Z M 22.78125 -5.453125 L 22.78125 -6.046875 L 23.390625 -6.046875 L 23.390625 -5.453125 Z M 20.609375 -4.734375 L 20.609375 -5.3125 L 21.1875 -5.3125 L 21.1875 -4.734375 Z M 22.0625 -4.734375 L 22.0625 -5.3125 L 22.65625 -5.3125 L 22.65625 -4.734375 Z M 22.796875 -4 L 22.796875 -4.59375 L 23.375 -4.59375 L 23.375 -4 Z M 19.890625 -4.015625 L 19.890625 -4.5625 L 20.453125 -4.5625 L 20.453125 -4.015625 Z M 21.34375 -4 L 21.34375 -4.5625 L 21.921875 -4.5625 L 21.921875 -4 Z M 22.0625 -3.28125 L 22.0625 -3.859375 L 22.65625 -3.859375 L 22.65625 -3.28125 Z M 19.171875 -3.28125 L 19.171875 -3.828125 L 19.703125 -3.828125 L 19.703125 -3.28125 Z M 20.625 -3.28125 L 20.625 -3.828125 L 21.1875 -3.828125 L 21.1875 -3.28125 Z M 19.890625 -2.5625 L 19.890625 -3.109375 L 20.453125 -3.109375 L 20.453125 -2.5625 Z M 21.34375 -2.546875 L 21.34375 -3.109375 L 21.921875 -3.109375 L 21.921875 -2.546875 Z M 20.625 -1.828125 L 20.625 -2.375 L 21.1875 -2.375 L 21.1875 -1.828125 Z M 19.171875 -1.828125 L 19.171875 -2.359375 L 19.703125 -2.359375 L 19.703125 -1.828125 Z M 18.453125 -1.109375 L 18.453125 -1.640625 L 18.96875 -1.640625 L 18.96875 -1.109375 Z M 19.921875 -1.109375 L 19.921875 -1.640625 L 20.453125 -1.640625 L 20.453125 -1.109375 Z M 21.34375 -1.078125 L 21.34375 -1.640625 L 21.90625 -1.640625 L 21.90625 -1.078125 Z M 19.171875 -0.375 L 19.171875 -0.90625 L 19.703125 -0.90625 L 19.703125 -0.375 Z M 20.625 -0.375 L 20.625 -0.90625 L 21.171875 -0.90625 L 21.171875 -0.375 Z M 18.453125 0.34375 L 18.453125 -0.15625 L 18.96875 -0.15625 L 18.96875 0.34375 Z M 19.921875 0.34375 L 19.921875 -0.15625 L 20.421875 -0.15625 L 20.421875 0.34375 Z M 20.65625 1.078125 L 20.65625 0.546875 L 21.171875 0.546875 L 21.171875 1.078125 Z M 19.171875 1.078125 L 19.171875 0.578125 L 19.6875 0.578125 L 19.6875 1.078125 Z M 19.921875 1.796875 L 19.921875 1.296875 L 20.421875 1.296875 L 20.421875 1.796875 Z M 19.921875 1.796875 "/></g></g></g><g fill="#ffffff" fill-opacity="1" data-darkreader-inline-fill="" style="--darkreader-inline-fill: #181a1b;"><g transform="translate(280.585505, 201.350934)"><g><path d="M 17.65625 4.9375 C 15.96875 4.9375 14.398438 4.628906 12.953125 4.015625 C 11.503906 3.410156 10.191406 2.53125 9.015625 1.375 L 5.46875 -2.1875 C 4.0625 -3.613281 2.921875 -5.351562 2.046875 -7.40625 C 1.171875 -9.457031 0.734375 -11.75 0.734375 -14.28125 C 0.734375 -16.03125 0.945312 -17.675781 1.375 -19.21875 C 1.800781 -20.769531 2.40625 -22.179688 3.1875 -23.453125 C 3.96875 -24.722656 4.894531 -25.816406 5.96875 -26.734375 C 7.050781 -27.648438 8.253906 -28.359375 9.578125 -28.859375 C 10.910156 -29.359375 12.320312 -29.609375 13.8125 -29.609375 C 15.570312 -29.609375 17.207031 -29.257812 18.71875 -28.5625 C 20.238281 -27.875 21.582031 -26.914062 22.75 -25.6875 L 26.3125 -22.140625 C 27.738281 -20.710938 28.832031 -18.976562 29.59375 -16.9375 C 30.351562 -14.90625 30.734375 -12.664062 30.734375 -10.21875 C 30.734375 -8.5 30.515625 -6.875 30.078125 -5.34375 C 29.648438 -3.8125 29.039062 -2.414062 28.25 -1.15625 C 27.46875 0.09375 26.535156 1.171875 25.453125 2.078125 C 24.378906 2.984375 23.179688 3.6875 21.859375 4.1875 C 20.546875 4.6875 19.144531 4.9375 17.65625 4.9375 Z M 13.78125 0.328125 C 15.550781 0.328125 17.1875 -0.0351562 18.6875 -0.765625 C 20.1875 -1.492188 21.492188 -2.515625 22.609375 -3.828125 C 23.722656 -5.148438 24.585938 -6.695312 25.203125 -8.46875 C 25.816406 -10.25 26.125 -12.191406 26.125 -14.296875 C 26.125 -15.878906 25.9375 -17.398438 25.5625 -18.859375 C 25.1875 -20.316406 24.640625 -21.648438 23.921875 -22.859375 C 23.203125 -24.078125 22.335938 -25.132812 21.328125 -26.03125 C 20.328125 -26.925781 19.191406 -27.625 17.921875 -28.125 C 16.648438 -28.625 15.28125 -28.875 13.8125 -28.875 C 12.050781 -28.875 10.414062 -28.507812 8.90625 -27.78125 C 7.40625 -27.0625 6.097656 -26.039062 4.984375 -24.71875 C 3.867188 -23.40625 3.003906 -21.859375 2.390625 -20.078125 C 1.773438 -18.304688 1.46875 -16.375 1.46875 -14.28125 C 1.46875 -12.6875 1.65625 -11.160156 2.03125 -9.703125 C 2.414062 -8.242188 2.960938 -6.90625 3.671875 -5.6875 C 4.378906 -4.46875 5.238281 -3.410156 6.25 -2.515625 C 7.257812 -1.617188 8.394531 -0.921875 9.65625 -0.421875 C 10.925781 0.078125 12.300781 0.328125 13.78125 0.328125 Z M 13.8125 -5.109375 C 12.78125 -5.109375 11.859375 -5.363281 11.046875 -5.875 C 10.234375 -6.394531 9.539062 -7.09375 8.96875 -7.96875 C 8.394531 -8.84375 7.953125 -9.828125 7.640625 -10.921875 C 7.335938 -12.015625 7.1875 -13.140625 7.1875 -14.296875 C 7.1875 -15.585938 7.351562 -16.785156 7.6875 -17.890625 C 8.03125 -18.992188 8.5 -19.960938 9.09375 -20.796875 C 9.695312 -21.628906 10.394531 -22.273438 11.1875 -22.734375 C 11.988281 -23.203125 12.851562 -23.4375 13.78125 -23.4375 C 14.820312 -23.4375 15.75 -23.179688 16.5625 -22.671875 C 17.375 -22.171875 18.066406 -21.488281 18.640625 -20.625 C 19.210938 -19.757812 19.648438 -18.78125 19.953125 -17.6875 C 20.253906 -16.59375 20.40625 -15.457031 20.40625 -14.28125 C 20.40625 -12.96875 20.238281 -11.753906 19.90625 -10.640625 C 19.582031 -9.523438 19.125 -8.550781 18.53125 -7.71875 C 17.9375 -6.882812 17.234375 -6.238281 16.421875 -5.78125 C 15.617188 -5.332031 14.75 -5.109375 13.8125 -5.109375 Z M 13.84375 -22.328125 L 14.078125 -22.328125 L 14.078125 -22.5625 L 13.84375 -22.5625 Z M 25.953125 0.203125 L 26.328125 0.203125 L 26.71875 -0.25 L 26.71875 -0.484375 L 26.90625 -0.484375 C 27.28125 -0.960938 27.628906 -1.488281 27.953125 -2.0625 L 27.5 -2.0625 L 27.5 -2.625 L 28.0625 -2.625 L 28.0625 -2.28125 L 28.359375 -2.828125 L 28.25 -2.828125 L 28.25 -3.34375 L 28.578125 -3.34375 C 28.703125 -3.613281 28.816406 -3.890625 28.921875 -4.171875 C 29.035156 -4.460938 29.140625 -4.757812 29.234375 -5.0625 L 29.03125 -5.0625 L 29.03125 -5.46875 L 29.359375 -5.46875 C 29.503906 -5.988281 29.625 -6.523438 29.71875 -7.078125 C 29.820312 -7.628906 29.894531 -8.203125 29.9375 -8.796875 L 29.859375 -8.796875 L 29.859375 -9.03125 L 29.953125 -9.03125 C 29.960938 -9.226562 29.972656 -9.425781 29.984375 -9.625 C 29.992188 -9.820312 30 -10.019531 30 -10.21875 L 30 -10.28125 L 29.875 -10.28125 L 29.875 -10.484375 L 30 -10.484375 C 29.96875 -12.929688 29.535156 -15.164062 28.703125 -17.1875 C 27.878906 -19.207031 26.601562 -21 24.875 -22.5625 C 25.351562 -21.738281 25.738281 -20.851562 26.03125 -19.90625 C 26.320312 -18.96875 26.535156 -18.015625 26.671875 -17.046875 C 26.804688 -16.085938 26.875 -15.164062 26.875 -14.28125 C 26.875 -13.5 26.828125 -12.734375 26.734375 -11.984375 C 26.648438 -11.242188 26.53125 -10.523438 26.375 -9.828125 L 26.484375 -9.828125 L 26.484375 -9.46875 L 26.28125 -9.46875 C 26.195312 -9.164062 26.109375 -8.863281 26.015625 -8.5625 C 25.921875 -8.257812 25.820312 -7.96875 25.71875 -7.6875 L 25.8125 -7.6875 L 25.8125 -7.234375 L 25.53125 -7.234375 C 25.414062 -6.929688 25.289062 -6.644531 25.15625 -6.375 C 25.019531 -6.101562 24.878906 -5.828125 24.734375 -5.546875 L 25.140625 -5.546875 L 25.140625 -4.984375 L 24.5625 -4.984375 L 24.5625 -5.28125 L 24.296875 -4.859375 L 24.4375 -4.859375 L 24.4375 -4.21875 L 23.875 -4.21875 L 23.75 -4.03125 L 23.75 -3.46875 L 23.296875 -3.46875 L 23.046875 -3.171875 L 23.046875 -2.71875 L 23.765625 -2.71875 L 23.765625 -1.984375 L 24.5 -1.984375 L 24.5 -1.25 L 25.234375 -1.25 L 25.234375 -0.53125 L 25.953125 -0.53125 Z M 12.328125 -22.265625 L 12.6875 -22.265625 L 12.6875 -22.53125 L 12.328125 -22.4375 Z M 11.53125 -21.46875 L 12.03125 -21.46875 L 12.03125 -21.96875 L 11.53125 -21.96875 Z M 13.046875 -21.53125 L 13.421875 -21.53125 L 13.421875 -21.90625 L 13.046875 -21.90625 Z M 14.59375 -21.59375 L 14.8125 -21.59375 L 14.8125 -21.84375 L 14.59375 -21.84375 Z M 10.75 -20.6875 L 11.34375 -20.6875 L 11.34375 -21.28125 L 10.75 -21.28125 Z M 12.265625 -20.75 L 12.75 -20.75 L 12.75 -21.21875 L 12.265625 -21.21875 Z M 13.78125 -20.8125 L 14.140625 -20.8125 L 14.140625 -21.171875 L 13.78125 -21.171875 Z M 15.3125 -20.875 L 15.546875 -20.875 L 15.546875 -21.109375 L 15.3125 -21.109375 Z M 11.453125 -6.53125 C 11.054688 -7.644531 10.859375 -9.082031 10.859375 -10.84375 C 10.859375 -11.175781 10.867188 -11.507812 10.890625 -11.84375 C 10.910156 -12.1875 10.945312 -12.515625 11 -12.828125 L 10.921875 -12.828125 L 10.921875 -13.15625 L 11.0625 -13.15625 C 11.1875 -13.789062 11.351562 -14.410156 11.5625 -15.015625 L 11.5625 -15.421875 L 11.71875 -15.421875 C 11.832031 -15.710938 11.957031 -15.988281 12.09375 -16.25 C 12.238281 -16.519531 12.382812 -16.78125 12.53125 -17.03125 L 12.1875 -17.03125 L 12.1875 -17.71875 L 12.859375 -17.71875 L 12.859375 -18.421875 L 12.15625 -18.421875 L 12.15625 -17.75 L 11.453125 -17.75 L 11.453125 -18.4375 L 12.125 -18.4375 L 12.125 -19.15625 L 11.4375 -19.15625 L 11.4375 -18.484375 L 10.734375 -18.484375 L 10.734375 -19.171875 L 11.390625 -19.171875 L 11.390625 -19.890625 L 10.6875 -19.890625 L 10.6875 -19.21875 L 10 -19.21875 L 10 -19.921875 L 10.671875 -19.921875 L 10.671875 -20.609375 L 9.953125 -20.609375 L 9.953125 -19.9375 L 9.421875 -19.9375 L 9.21875 -19.59375 L 9.21875 -19.21875 L 9.03125 -19.21875 C 8.769531 -18.707031 8.566406 -18.179688 8.421875 -17.640625 C 8.273438 -17.109375 8.160156 -16.582031 8.078125 -16.0625 L 8.3125 -16.0625 L 8.3125 -15.75 L 8.03125 -15.75 C 8 -15.519531 7.976562 -15.28125 7.96875 -15.03125 C 7.957031 -14.789062 7.953125 -14.539062 7.953125 -14.28125 C 7.953125 -13.226562 8.082031 -12.195312 8.34375 -11.1875 C 8.601562 -10.1875 8.992188 -9.28125 9.515625 -8.46875 C 10.046875 -7.65625 10.691406 -7.007812 11.453125 -6.53125 Z M 11.46875 -19.953125 L 12.0625 -19.953125 L 12.0625 -20.546875 L 11.46875 -20.546875 Z M 12.984375 -20.015625 L 13.484375 -20.015625 L 13.484375 -20.515625 L 12.984375 -20.515625 Z M 14.5 -20.078125 L 14.875 -20.078125 L 14.875 -20.453125 L 14.5 -20.453125 Z M 16.046875 -20.140625 L 16.265625 -20.140625 L 16.265625 -20.390625 L 16.046875 -20.390625 Z M 12.21875 -19.234375 L 12.8125 -19.234375 L 12.8125 -19.828125 L 12.21875 -19.828125 Z M 13.734375 -19.28125 L 14.203125 -19.28125 L 14.203125 -19.765625 L 13.734375 -19.765625 Z M 15.25 -19.484375 L 15.609375 -19.625 L 15.609375 -19.703125 L 15.25 -19.703125 Z M 13.8125 -5.84375 C 14.644531 -5.84375 15.414062 -6.050781 16.125 -6.46875 C 16.832031 -6.894531 17.453125 -7.488281 17.984375 -8.25 C 18.515625 -9.007812 18.925781 -9.90625 19.21875 -10.9375 C 19.519531 -11.96875 19.671875 -13.082031 19.671875 -14.28125 C 19.671875 -15.164062 19.585938 -16.003906 19.421875 -16.796875 C 19.253906 -17.585938 19.019531 -18.320312 18.71875 -19 C 18.351562 -19.15625 17.929688 -19.234375 17.453125 -19.234375 C 16.640625 -19.234375 15.875 -19.019531 15.15625 -18.59375 C 14.445312 -18.175781 13.828125 -17.582031 13.296875 -16.8125 C 12.765625 -16.050781 12.347656 -15.160156 12.046875 -14.140625 C 11.742188 -13.128906 11.59375 -12.03125 11.59375 -10.84375 C 11.59375 -9.789062 11.660156 -8.878906 11.796875 -8.109375 C 11.929688 -7.347656 12.144531 -6.664062 12.4375 -6.0625 C 12.882812 -5.914062 13.34375 -5.84375 13.8125 -5.84375 Z M 9.328125 -18.546875 L 9.328125 -19.140625 L 9.921875 -19.140625 L 9.921875 -18.546875 Z M 12.953125 -18.5 L 13.546875 -18.5 L 13.546875 -19.09375 L 12.953125 -19.09375 Z M 10.046875 -17.796875 L 10.046875 -18.40625 L 10.640625 -18.40625 L 10.640625 -17.796875 Z M 8.671875 -17.84375 L 8.671875 -18.34375 L 9.15625 -18.34375 L 9.15625 -17.84375 Z M 12.890625 -17.515625 L 13.03125 -17.703125 L 12.890625 -17.703125 Z M 10.78125 -17.0625 L 10.78125 -17.65625 L 11.375 -17.65625 L 11.375 -17.0625 Z M 9.359375 -17.125 L 9.359375 -17.625 L 9.859375 -17.625 L 9.859375 -17.125 Z M 11.515625 -16.34375 L 11.515625 -16.9375 L 12.109375 -16.9375 L 12.109375 -16.34375 Z M 10.09375 -16.390625 L 10.09375 -16.875 L 10.59375 -16.875 L 10.59375 -16.390625 Z M 8.6875 -16.4375 L 8.6875 -16.84375 L 9.078125 -16.84375 L 9.078125 -16.4375 Z M 10.84375 -15.65625 L 10.84375 -16.171875 L 11.328125 -16.171875 L 11.328125 -15.65625 Z M 9.421875 -15.71875 L 9.421875 -16.109375 L 9.8125 -16.109375 L 9.8125 -15.71875 Z M 10.140625 -14.984375 L 10.140625 -15.390625 L 10.546875 -15.390625 L 10.546875 -14.984375 Z M 8.734375 -15.015625 L 8.734375 -15.328125 L 9.03125 -15.328125 L 9.03125 -15.015625 Z M 10.875 -14.234375 L 10.875 -14.65625 L 11.265625 -14.65625 L 11.265625 -14.234375 Z M 9.46875 -14.296875 L 9.46875 -14.609375 L 9.765625 -14.609375 L 9.765625 -14.296875 Z M 8.046875 -14.34375 L 8.046875 -14.546875 L 8.25 -14.546875 L 8.25 -14.34375 Z M 10.1875 -13.5625 L 10.1875 -13.875 L 10.515625 -13.875 L 10.515625 -13.5625 Z M 8.765625 -13.625 L 8.765625 -13.828125 L 8.96875 -13.828125 L 8.96875 -13.625 Z M 26.9375 -13.1875 L 26.9375 -13.40625 L 27.140625 -13.40625 L 27.140625 -13.1875 Z M 9.5 -12.890625 L 9.5 -13.09375 L 9.71875 -13.09375 L 9.71875 -12.890625 Z M 27.6875 -12.453125 L 27.6875 -12.65625 L 27.890625 -12.65625 L 27.890625 -12.453125 Z M 10.25 -12.15625 L 10.25 -12.359375 L 10.453125 -12.359375 L 10.453125 -12.15625 Z M 26.921875 -11.71875 L 26.921875 -11.96875 L 27.1875 -11.96875 L 27.1875 -11.71875 Z M 28.421875 -11.734375 L 28.421875 -11.9375 L 28.625 -11.9375 L 28.625 -11.734375 Z M 27.65625 -10.984375 L 27.65625 -11.234375 L 27.90625 -11.234375 L 27.90625 -10.984375 Z M 29.140625 -11 L 29.140625 -11.203125 L 29.34375 -11.203125 L 29.34375 -11 Z M 26.90625 -10.21875 L 26.90625 -10.53125 L 27.203125 -10.53125 L 27.203125 -10.21875 Z M 28.375 -10.25 L 28.375 -10.515625 L 28.640625 -10.515625 L 28.640625 -10.25 Z M 27.625 -9.484375 L 27.625 -9.796875 L 27.921875 -9.796875 L 27.921875 -9.484375 Z M 29.109375 -9.53125 L 29.109375 -9.765625 L 29.359375 -9.765625 L 29.359375 -9.53125 Z M 26.875 -8.75 L 26.875 -9.09375 L 27.234375 -9.09375 L 27.234375 -8.75 Z M 28.359375 -8.765625 L 28.359375 -9.078125 L 28.65625 -9.078125 L 28.65625 -8.765625 Z M 26.125 -7.984375 L 26.125 -8.375 L 26.53125 -8.375 L 26.53125 -7.984375 Z M 27.59375 -8.015625 L 27.59375 -8.359375 L 27.96875 -8.359375 L 27.96875 -8.015625 Z M 29.09375 -8.03125 L 29.09375 -8.34375 L 29.40625 -8.34375 L 29.40625 -8.03125 Z M 26.84375 -7.25 L 26.84375 -7.65625 L 27.25 -7.65625 L 27.25 -7.25 Z M 28.328125 -7.265625 L 28.328125 -7.640625 L 28.6875 -7.640625 L 28.6875 -7.265625 Z M 26.078125 -6.5 L 26.078125 -6.96875 L 26.546875 -6.96875 L 26.546875 -6.5 Z M 27.578125 -6.515625 L 27.578125 -6.921875 L 27.984375 -6.921875 L 27.984375 -6.515625 Z M 29.078125 -6.5625 L 29.078125 -6.90625 L 29.421875 -6.90625 L 29.421875 -6.5625 Z M 25.328125 -5.734375 L 25.328125 -6.25 L 25.859375 -6.25 L 25.859375 -5.734375 Z M 26.8125 -5.75 L 26.8125 -6.234375 L 27.296875 -6.234375 L 27.296875 -5.75 Z M 28.3125 -5.796875 L 28.3125 -6.203125 L 28.703125 -6.203125 L 28.703125 -5.796875 Z M 26.0625 -5 L 26.0625 -5.53125 L 26.578125 -5.53125 L 26.578125 -5 Z M 27.5625 -5.046875 L 27.5625 -5.484375 L 28 -5.484375 L 28 -5.046875 Z M 25.296875 -4.234375 L 25.296875 -4.8125 L 25.875 -4.8125 L 25.875 -4.234375 Z M 26.796875 -4.28125 L 26.796875 -4.796875 L 27.3125 -4.796875 L 27.3125 -4.28125 Z M 28.28125 -4.296875 L 28.28125 -4.78125 L 28.75 -4.78125 L 28.75 -4.296875 Z M 24.546875 -3.484375 L 24.546875 -4.125 L 25.1875 -4.125 L 25.1875 -3.484375 Z M 26.046875 -3.53125 L 26.046875 -4.09375 L 26.609375 -4.09375 L 26.609375 -3.53125 Z M 27.515625 -3.546875 L 27.515625 -4.0625 L 28.046875 -4.0625 L 28.046875 -3.546875 Z M 23.78125 -2.71875 L 23.78125 -3.421875 L 24.484375 -3.421875 L 24.484375 -2.71875 Z M 25.28125 -2.765625 L 25.28125 -3.40625 L 25.890625 -3.40625 L 25.890625 -2.765625 Z M 26.765625 -2.78125 L 26.765625 -3.359375 L 27.328125 -3.359375 L 27.328125 -2.78125 Z M 22.328125 -2.015625 L 23.03125 -2.015625 L 23.03125 -2.703125 L 22.625 -2.703125 L 22.328125 -2.421875 Z M 24.53125 -2.015625 L 24.53125 -2.6875 L 25.203125 -2.6875 L 25.203125 -2.015625 Z M 26 -2.03125 L 26 -2.65625 L 26.640625 -2.65625 L 26.640625 -2.03125 Z M 23.0625 -1.296875 L 23.765625 -1.296875 L 23.765625 -1.96875 L 23.0625 -1.96875 Z M 25.234375 -1.265625 L 25.234375 -1.96875 L 25.9375 -1.96875 L 25.9375 -1.265625 Z M 21.640625 -1.3125 L 22.265625 -1.3125 L 22.265625 -1.953125 L 21.8125 -1.953125 L 21.640625 -1.78125 Z M 26.734375 -1.296875 L 26.734375 -1.921875 L 27.375 -1.921875 L 27.375 -1.296875 Z M 23.8125 -0.546875 L 24.484375 -0.546875 L 24.484375 -1.25 L 23.8125 -1.25 Z M 25.984375 -0.53125 L 25.984375 -1.234375 L 26.65625 -1.234375 L 26.65625 -0.53125 Z M 22.375 -0.59375 L 23.015625 -0.59375 L 23.015625 -1.203125 L 22.375 -1.203125 Z M 20.9375 -0.609375 L 21.515625 -0.609375 L 21.515625 -1.1875 L 20.9375 -1.1875 Z M 24.53125 0.1875 L 25.21875 0.1875 L 25.21875 -0.515625 L 24.53125 -0.515625 Z M 23.09375 0.140625 L 23.71875 0.140625 L 23.71875 -0.484375 L 23.09375 -0.484375 Z M 21.671875 0.125 L 22.234375 0.125 L 22.234375 -0.453125 L 21.671875 -0.453125 Z M 20.25 0.078125 L 20.75 0.078125 L 20.75 -0.4375 L 20.25 -0.4375 Z M 18.8125 0.0625 L 19.265625 0.0625 L 19.265625 -0.203125 L 18.8125 0.015625 Z M 25.265625 0.90625 L 25.671875 0.90625 L 25.953125 0.609375 L 25.953125 0.21875 L 25.265625 0.21875 Z M 23.828125 0.875 L 24.46875 0.875 L 24.46875 0.25 L 23.828125 0.25 Z M 22.390625 0.84375 L 22.96875 0.84375 L 22.96875 0.265625 L 22.390625 0.265625 Z M 20.984375 0.8125 L 21.46875 0.8125 L 21.46875 0.3125 L 20.984375 0.3125 Z M 19.546875 0.78125 L 20 0.78125 L 20 0.328125 L 19.546875 0.328125 Z M 18.109375 0.765625 L 18.5 0.765625 L 18.5 0.375 L 18.109375 0.375 Z M 16.796875 0.71875 L 17 0.71875 L 17 0.65625 Z M 24.5625 1.59375 L 24.890625 1.59375 L 25.203125 1.328125 L 25.203125 0.984375 L 24.5625 0.984375 Z M 23.125 1.578125 L 23.703125 1.578125 L 23.703125 1 L 23.125 1 Z M 21.703125 1.53125 L 22.203125 1.53125 L 22.203125 1.046875 L 21.703125 1.046875 Z M 20.265625 1.515625 L 20.71875 1.515625 L 20.71875 1.0625 L 20.265625 1.0625 Z M 18.84375 1.46875 L 19.21875 1.46875 L 19.21875 1.078125 L 18.84375 1.078125 Z M 17.421875 1.453125 L 17.75 1.453125 L 17.75 1.125 L 17.421875 1.125 Z M 15.984375 1.40625 L 16.25 1.40625 L 16.25 1.140625 L 15.984375 1.140625 Z M 14.546875 1.390625 L 14.75 1.390625 L 14.75 1.1875 L 14.546875 1.1875 Z M 23.875 2.296875 L 23.953125 2.296875 L 24.421875 1.96875 L 24.421875 1.734375 L 23.875 1.734375 Z M 22.4375 2.28125 L 22.953125 2.28125 L 22.953125 1.765625 L 22.4375 1.765625 Z M 21 2.25 L 21.453125 2.25 L 21.453125 1.796875 L 21 1.796875 Z M 19.5625 2.21875 L 19.953125 2.21875 L 19.953125 1.828125 L 19.5625 1.828125 Z M 18.125 2.1875 L 18.453125 2.1875 L 18.453125 1.859375 L 18.125 1.859375 Z M 16.71875 2.15625 L 16.984375 2.15625 L 16.984375 1.890625 L 16.71875 1.890625 Z M 15.28125 2.125 L 15.484375 2.125 L 15.484375 1.921875 L 15.28125 1.921875 Z M 23.15625 2.78125 L 23.640625 2.5 L 23.15625 2.5 Z M 21.734375 2.96875 L 22.171875 2.96875 L 22.171875 2.515625 L 21.734375 2.515625 Z M 20.296875 2.953125 L 20.6875 2.953125 L 20.6875 2.5625 L 20.296875 2.5625 Z M 18.875 2.90625 L 19.203125 2.90625 L 19.203125 2.578125 L 18.875 2.578125 Z M 17.4375 2.890625 L 17.703125 2.890625 L 17.703125 2.625 L 17.4375 2.625 Z M 16 2.84375 L 16.203125 2.84375 L 16.203125 2.640625 L 16 2.640625 Z M 21.015625 3.671875 L 21.125 3.671875 L 21.40625 3.5625 L 21.40625 3.28125 L 21.015625 3.28125 Z M 19.609375 3.640625 L 19.9375 3.640625 L 19.9375 3.3125 L 19.609375 3.3125 Z M 18.171875 3.609375 L 18.4375 3.609375 L 18.4375 3.34375 L 18.171875 3.34375 Z M 16.734375 3.578125 L 16.9375 3.578125 L 16.9375 3.375 L 16.734375 3.375 Z M 18.90625 4.140625 L 19.15625 4.09375 L 19.15625 4.078125 L 18.90625 4.078125 Z M 17.484375 4.203125 L 17.6875 4.203125 L 17.6875 4.125 L 17.484375 4.125 Z M 17.484375 4.203125 "/></g></g></g><g fill="#ffffff" fill-opacity="1" data-darkreader-inline-fill="" style="--darkreader-inline-fill: #181a1b;"><g transform="translate(311.921966, 201.350934)"><g><path d="M 6.140625 4.453125 L 1.84375 0.140625 L 1.84375 -6.265625 L 7.421875 -6.265625 L 7.421875 -14.140625 L 5.34375 -12.75 L 1.375 -16.734375 L 1.234375 -23.671875 L 9.015625 -29.140625 L 14.390625 -29.140625 L 18.875 -24.859375 L 18.875 -6.265625 L 19.234375 -6.265625 L 23.546875 -1.96875 L 23.546875 4.453125 Z M 2.578125 -0.375 L 18.71875 -0.375 L 18.71875 -5.53125 L 13.84375 -5.53125 L 13.84375 -28.390625 L 9.265625 -28.390625 L 1.96875 -23.296875 L 2.0625 -17.578125 L 8.15625 -21.703125 L 8.15625 -5.53125 L 2.578125 -5.53125 Z M 14.59375 -6.265625 L 18.125 -6.265625 L 18.125 -23.125 L 17.515625 -23.125 L 17.515625 -23.71875 L 18.125 -23.71875 L 18.125 -24.53125 L 18.109375 -24.546875 L 17.5 -24.546875 L 17.5 -25.140625 L 17.328125 -25.28125 L 16.765625 -25.28125 L 16.765625 -25.84375 L 16.59375 -26 L 16.015625 -26 L 16.015625 -26.53125 L 15.8125 -26.734375 L 15.3125 -26.734375 L 15.3125 -27.234375 L 15.03125 -27.46875 L 14.59375 -27.46875 L 14.59375 -26.65625 L 15.1875 -26.65625 L 15.1875 -26.046875 L 14.59375 -26.046875 Z M 15.34375 -25.328125 L 15.34375 -25.921875 L 15.9375 -25.921875 L 15.9375 -25.328125 Z M 16.0625 -24.59375 L 16.0625 -25.1875 L 16.671875 -25.1875 L 16.671875 -24.59375 Z M 14.65625 -24.625 L 14.65625 -25.15625 L 15.1875 -25.15625 L 15.1875 -24.625 Z M 16.796875 -23.84375 L 16.796875 -24.46875 L 17.390625 -24.46875 L 17.390625 -23.84375 Z M 15.359375 -23.890625 L 15.359375 -24.421875 L 15.90625 -24.421875 L 15.90625 -23.890625 Z M 16.109375 -23.171875 L 16.109375 -23.6875 L 16.640625 -23.6875 L 16.640625 -23.171875 Z M 14.6875 -23.1875 L 14.6875 -23.640625 L 15.140625 -23.640625 L 15.140625 -23.1875 Z M 16.84375 -22.4375 L 16.84375 -22.96875 L 17.359375 -22.96875 L 17.359375 -22.4375 Z M 15.40625 -22.46875 L 15.40625 -22.921875 L 15.859375 -22.921875 L 15.859375 -22.46875 Z M 17.53125 -21.703125 L 17.53125 -22.234375 L 18.078125 -22.234375 L 18.078125 -21.703125 Z M 16.140625 -21.734375 L 16.140625 -22.1875 L 16.59375 -22.1875 L 16.59375 -21.734375 Z M 14.734375 -21.78125 L 14.734375 -22.140625 L 15.09375 -22.140625 L 15.09375 -21.78125 Z M 16.875 -21.015625 L 16.875 -21.453125 L 17.328125 -21.453125 L 17.328125 -21.015625 Z M 15.453125 -21.0625 L 15.453125 -21.40625 L 15.8125 -21.40625 L 15.8125 -21.0625 Z M 17.59375 -20.28125 L 17.59375 -20.734375 L 18.046875 -20.734375 L 18.046875 -20.28125 Z M 16.1875 -20.328125 L 16.1875 -20.6875 L 16.5625 -20.6875 L 16.5625 -20.328125 Z M 14.765625 -20.359375 L 14.765625 -20.65625 L 15.0625 -20.65625 L 15.0625 -20.359375 Z M 16.921875 -19.59375 L 16.921875 -19.953125 L 17.296875 -19.953125 L 17.296875 -19.59375 Z M 15.484375 -19.625 L 15.484375 -19.921875 L 15.78125 -19.921875 L 15.78125 -19.625 Z M 6.828125 -19.5625 L 7.09375 -19.5625 L 7.09375 -19.828125 L 6.828125 -19.828125 Z M 17.640625 -18.875 L 17.640625 -19.234375 L 18.015625 -19.234375 L 18.015625 -18.875 Z M 16.234375 -18.90625 L 16.234375 -19.203125 L 16.515625 -19.203125 L 16.515625 -18.90625 Z M 14.8125 -18.953125 L 14.8125 -19.15625 L 15.015625 -19.15625 L 15.015625 -18.953125 Z M 6.046875 -18.8125 L 6.375 -18.8125 L 6.375 -19.140625 L 6.046875 -19.140625 Z M 16.96875 -18.171875 L 16.96875 -18.453125 L 17.25 -18.453125 L 17.25 -18.171875 Z M 5.28125 -18.046875 L 5.671875 -18.046875 L 5.671875 -18.4375 L 5.28125 -18.4375 Z M 15.53125 -18.21875 L 15.53125 -18.421875 L 15.734375 -18.421875 L 15.734375 -18.21875 Z M 6.78125 -18.078125 L 7.109375 -18.078125 L 7.109375 -18.40625 L 6.78125 -18.40625 Z M 4.03125 -18.015625 L 4.265625 -18.015625 L 4.265625 -18.15625 Z M 4.53125 -17.296875 L 4.984375 -17.296875 L 4.984375 -17.75 L 4.53125 -17.75 Z M 17.6875 -17.4375 L 17.6875 -17.71875 L 17.96875 -17.71875 L 17.96875 -17.4375 Z M 6.03125 -17.3125 L 6.40625 -17.3125 L 6.40625 -17.703125 L 6.03125 -17.703125 Z M 16.265625 -17.484375 L 16.265625 -17.6875 L 16.46875 -17.6875 L 16.46875 -17.484375 Z M 3.03125 -17.25 L 3.546875 -17.25 L 3.546875 -17.65625 L 3.03125 -17.3125 Z M 2.625 -16.5 L 2.84375 -16.5 L 2.84375 -17.0625 L 2.65625 -17.0625 L 2.296875 -16.828125 Z M 3.765625 -16.515625 L 4.28125 -16.515625 L 4.28125 -17.046875 L 3.765625 -17.046875 Z M 5.265625 -16.5625 L 5.71875 -16.5625 L 5.71875 -17 L 5.265625 -17 Z M 6.765625 -16.59375 L 7.15625 -16.59375 L 7.15625 -16.984375 L 6.765625 -16.984375 Z M 17 -16.765625 L 17 -16.96875 L 17.203125 -16.96875 L 17.203125 -16.765625 Z M 3.359375 -15.75 L 3.578125 -15.75 L 3.578125 -16.34375 L 3.015625 -16.34375 L 3.015625 -16.109375 Z M 4.5 -15.796875 L 5.015625 -15.796875 L 5.015625 -16.3125 L 4.5 -16.3125 Z M 5.984375 -15.8125 L 6.453125 -15.8125 L 6.453125 -16.28125 L 5.984375 -16.28125 Z M 17.71875 -16.015625 L 17.71875 -16.234375 L 17.921875 -16.234375 L 17.921875 -16.015625 Z M 4.078125 -15.03125 L 4.328125 -15.03125 L 4.328125 -15.609375 L 3.734375 -15.609375 L 3.734375 -15.390625 Z M 5.21875 -15.0625 L 5.734375 -15.0625 L 5.734375 -15.578125 L 5.21875 -15.578125 Z M 6.71875 -15.09375 L 7.171875 -15.09375 L 7.171875 -15.546875 L 6.71875 -15.546875 Z M 4.8125 -14.296875 L 5.046875 -14.296875 L 5.046875 -14.875 L 4.46875 -14.875 L 4.46875 -14.65625 Z M 5.96875 -14.34375 L 6.390625 -14.34375 L 6.46875 -14.40625 L 6.46875 -14.859375 L 5.96875 -14.859375 Z M 5.421875 -13.6875 L 5.78125 -13.9375 L 5.78125 -14.15625 L 5.203125 -14.15625 L 5.203125 -13.90625 Z M 22.796875 3.703125 L 22.796875 -1.6875 L 19.46875 -5.015625 L 19.46875 0.375 Z M 11.046875 0.734375 L 11.453125 0.734375 L 11.453125 0.375 L 11.046875 0.375 Z M 12.5 0.78125 L 12.96875 0.78125 L 12.96875 0.375 L 12.5 0.375 Z M 13.953125 0.8125 L 14.5 0.8125 L 14.5 0.375 L 13.953125 0.375 Z M 15.46875 0.8125 L 16.015625 0.8125 L 16.015625 0.375 L 15.46875 0.375 Z M 16.9375 0.8125 L 17.5 0.8125 L 17.5 0.375 L 16.9375 0.375 Z M 18.4375 0.8125 L 19 0.8125 L 19 0.375 L 18.4375 0.375 Z M 9.59375 0.71875 L 9.921875 0.71875 L 9.921875 0.390625 L 9.59375 0.390625 Z M 8.109375 0.671875 L 8.375 0.671875 L 8.375 0.4375 L 8.109375 0.4375 Z M 6.640625 0.65625 L 6.84375 0.65625 L 6.84375 0.453125 L 6.640625 0.453125 Z M 14.703125 1.578125 L 15.265625 1.578125 L 15.265625 1.03125 L 14.703125 1.03125 Z M 16.234375 1.578125 L 16.78125 1.578125 L 16.78125 1.03125 L 16.234375 1.03125 Z M 17.703125 1.578125 L 18.25 1.578125 L 18.25 1.03125 L 17.703125 1.03125 Z M 19.203125 1.578125 L 19.75 1.578125 L 19.75 1.03125 L 19.203125 1.03125 Z M 13.234375 1.53125 L 13.734375 1.53125 L 13.734375 1.046875 L 13.234375 1.046875 Z M 11.78125 1.5 L 12.1875 1.5 L 12.1875 1.078125 L 11.78125 1.078125 Z M 10.328125 1.453125 L 10.65625 1.453125 L 10.65625 1.125 L 10.328125 1.125 Z M 8.875 1.40625 L 9.125 1.40625 L 9.125 1.171875 L 8.875 1.171875 Z M 7.390625 1.40625 L 7.59375 1.40625 L 7.59375 1.203125 L 7.390625 1.203125 Z M 15.453125 2.3125 L 16 2.3125 L 16 1.765625 L 15.453125 1.765625 Z M 16.96875 2.3125 L 17.515625 2.3125 L 17.515625 1.765625 L 16.96875 1.765625 Z M 18.4375 2.3125 L 19 2.3125 L 19 1.765625 L 18.4375 1.765625 Z M 19.9375 2.3125 L 20.484375 2.3125 L 20.484375 1.765625 L 19.9375 1.765625 Z M 14 2.28125 L 14.46875 2.28125 L 14.46875 1.796875 L 14 1.796875 Z M 12.53125 2.25 L 12.953125 2.25 L 12.953125 1.84375 L 12.53125 1.84375 Z M 11.078125 2.21875 L 11.40625 2.21875 L 11.40625 1.890625 L 11.078125 1.890625 Z M 9.609375 2.171875 L 9.875 2.171875 L 9.875 1.921875 L 9.609375 1.921875 Z M 8.140625 2.15625 L 8.34375 2.15625 L 8.34375 1.953125 L 8.140625 1.953125 Z M 16.203125 3.078125 L 16.765625 3.078125 L 16.765625 2.515625 L 16.203125 2.515625 Z M 17.71875 3.078125 L 18.28125 3.078125 L 18.28125 2.515625 L 17.71875 2.515625 Z M 19.203125 3.078125 L 19.75 3.078125 L 19.75 2.515625 L 19.203125 2.515625 Z M 20.6875 3.078125 L 21.25 3.078125 L 21.25 2.515625 L 20.6875 2.515625 Z M 14.734375 3.03125 L 15.21875 3.03125 L 15.21875 2.546875 L 14.734375 2.546875 Z M 13.28125 2.984375 L 13.6875 2.984375 L 13.6875 2.578125 L 13.28125 2.578125 Z M 11.828125 2.953125 L 12.15625 2.953125 L 12.15625 2.625 L 11.828125 2.625 Z M 10.359375 2.90625 L 10.609375 2.90625 L 10.609375 2.65625 L 10.359375 2.65625 Z M 8.890625 2.90625 L 9.09375 2.90625 L 9.09375 2.703125 L 8.890625 2.703125 Z M 16.9375 3.703125 L 17.5 3.703125 L 17.5 3.25 L 16.9375 3.25 Z M 18.453125 3.703125 L 19.015625 3.703125 L 19.015625 3.25 L 18.453125 3.25 Z M 19.9375 3.703125 L 20.484375 3.703125 L 20.484375 3.25 L 19.9375 3.25 Z M 21.4375 3.703125 L 21.984375 3.703125 L 21.984375 3.25 L 21.4375 3.25 Z M 15.484375 3.703125 L 15.953125 3.703125 L 15.953125 3.296875 L 15.484375 3.296875 Z M 14.03125 3.703125 L 14.4375 3.703125 L 14.4375 3.34375 L 14.03125 3.34375 Z M 12.578125 3.703125 L 12.90625 3.703125 L 12.90625 3.375 L 12.578125 3.375 Z M 11.109375 3.671875 L 11.375 3.671875 L 11.375 3.421875 L 11.109375 3.421875 Z M 9.625 3.640625 L 9.828125 3.640625 L 9.828125 3.4375 L 9.625 3.4375 Z M 9.625 3.640625 "/></g></g></g><g fill="#ffffff" fill-opacity="1" data-darkreader-inline-fill="" style="--darkreader-inline-fill: #181a1b;"><g transform="translate(336.294767, 201.350934)"><g><path d="M 6.328125 4.453125 L 2.046875 0.15625 L 2.046875 -29.046875 L 12.09375 -29.046875 C 14.476562 -29.046875 16.640625 -28.625 18.578125 -27.78125 C 20.523438 -26.945312 22.222656 -25.804688 23.671875 -24.359375 L 27.125 -20.890625 C 29.914062 -18.109375 31.3125 -14.550781 31.3125 -10.21875 C 31.3125 -8.0625 30.941406 -6.082031 30.203125 -4.28125 C 29.460938 -2.488281 28.414062 -0.941406 27.0625 0.359375 C 25.707031 1.660156 24.101562 2.664062 22.25 3.375 C 20.40625 4.09375 18.367188 4.453125 16.140625 4.453125 Z M 2.78125 -0.375 L 12.0625 -0.375 C 14.226562 -0.375 16.203125 -0.707031 17.984375 -1.375 C 19.773438 -2.050781 21.320312 -3.007812 22.625 -4.25 C 23.9375 -5.488281 24.945312 -6.960938 25.65625 -8.671875 C 26.363281 -10.378906 26.71875 -12.253906 26.71875 -14.296875 C 26.71875 -16.347656 26.359375 -18.226562 25.640625 -19.9375 C 24.921875 -21.644531 23.90625 -23.125 22.59375 -24.375 C 21.28125 -25.632812 19.734375 -26.601562 17.953125 -27.28125 C 16.171875 -27.96875 14.21875 -28.3125 12.09375 -28.3125 L 2.78125 -28.3125 Z M 8.515625 -5.640625 L 8.515625 -22.84375 L 12.171875 -22.84375 C 13.941406 -22.832031 15.476562 -22.472656 16.78125 -21.765625 C 18.09375 -21.066406 19.101562 -20.082031 19.8125 -18.8125 C 20.53125 -17.539062 20.890625 -16.035156 20.890625 -14.296875 C 20.890625 -12.535156 20.523438 -11.003906 19.796875 -9.703125 C 19.078125 -8.410156 18.054688 -7.410156 16.734375 -6.703125 C 15.421875 -5.992188 13.875 -5.640625 12.09375 -5.640625 Z M 9.265625 -21.546875 L 9.671875 -21.546875 L 9.671875 -22.03125 L 9.265625 -22.03125 Z M 10.640625 -21.578125 L 11.046875 -21.578125 L 11.046875 -21.984375 L 10.640625 -21.984375 Z M 12.15625 -21.578125 L 12.5625 -21.578125 L 12.5625 -21.984375 L 12.15625 -21.984375 Z M 13.734375 -21.609375 L 14.015625 -21.609375 L 14.015625 -21.90625 L 13.734375 -21.90625 Z M 9.890625 -20.8125 L 10.359375 -20.8125 L 10.359375 -21.3125 L 9.890625 -21.3125 Z M 26.0625 -0.3125 L 26.703125 -0.3125 L 26.796875 -0.4375 L 26.796875 -1 L 27.328125 -1 L 27.53125 -1.25 L 27.53125 -1.734375 L 27.921875 -1.734375 L 28.28125 -2.234375 L 28.28125 -2.484375 L 28.4375 -2.484375 C 28.78125 -3.015625 29.066406 -3.550781 29.296875 -4.09375 L 29.109375 -4.09375 L 29.109375 -4.546875 L 29.5 -4.546875 C 29.738281 -5.148438 29.9375 -5.75 30.09375 -6.34375 L 29.890625 -6.34375 L 29.890625 -6.671875 L 30.171875 -6.671875 C 30.296875 -7.234375 30.390625 -7.804688 30.453125 -8.390625 C 30.523438 -8.984375 30.5625 -9.59375 30.5625 -10.21875 C 30.5625 -11.78125 30.394531 -13.179688 30.0625 -14.421875 C 29.738281 -15.660156 29.222656 -16.835938 28.515625 -17.953125 C 27.816406 -19.066406 26.894531 -20.1875 25.75 -21.3125 C 26.300781 -20.257812 26.722656 -19.117188 27.015625 -17.890625 C 27.304688 -16.671875 27.453125 -15.472656 27.453125 -14.296875 C 27.453125 -13.742188 27.425781 -13.191406 27.375 -12.640625 C 27.320312 -12.097656 27.238281 -11.566406 27.125 -11.046875 L 27.296875 -11.046875 L 27.296875 -10.75 L 27.0625 -10.75 C 27.007812 -10.4375 26.9375 -10.125 26.84375 -9.8125 C 26.75 -9.507812 26.644531 -9.207031 26.53125 -8.90625 L 26.609375 -8.90625 L 26.609375 -8.5 L 26.375 -8.5 C 26.257812 -8.195312 26.128906 -7.898438 25.984375 -7.609375 C 25.847656 -7.328125 25.703125 -7.050781 25.546875 -6.78125 L 25.9375 -6.78125 L 25.9375 -6.25 L 25.421875 -6.25 L 25.421875 -6.578125 C 25.316406 -6.390625 25.207031 -6.21875 25.09375 -6.0625 L 25.234375 -6.0625 L 25.234375 -5.484375 L 24.703125 -5.484375 L 24.546875 -5.265625 L 24.546875 -4.734375 L 24.109375 -4.734375 L 23.828125 -4.421875 L 23.828125 -3.96875 L 23.421875 -3.96875 L 23.125 -3.703125 L 23.125 -3.234375 L 23.875 -3.234375 L 23.875 -2.5 L 24.59375 -2.5 L 24.59375 -1.765625 L 23.890625 -1.765625 L 23.890625 -1.0625 L 24.59375 -1.0625 L 24.59375 -1.765625 L 25.328125 -1.765625 L 25.328125 -1.046875 L 26.0625 -1.046875 Z M 11.34375 -20.875 L 11.765625 -20.875 L 11.765625 -21.28125 L 11.34375 -21.28125 Z M 12.859375 -20.875 L 13.28125 -20.875 L 13.28125 -21.28125 L 12.859375 -21.28125 Z M 14.4375 -20.9375 L 14.734375 -20.9375 L 14.734375 -21.21875 L 14.4375 -21.21875 Z M 15.984375 -20.9375 L 16.1875 -20.9375 L 16.1875 -21.140625 L 15.984375 -21.140625 Z M 9.265625 -20 L 9.734375 -20 L 9.734375 -20.671875 L 9.265625 -20.671875 Z M 10.609375 -20.09375 L 11.109375 -20.09375 L 11.109375 -20.578125 L 10.609375 -20.578125 Z M 12.125 -20.15625 L 12.53125 -20.15625 L 12.53125 -20.578125 L 12.125 -20.578125 Z M 13.640625 -20.15625 L 14.0625 -20.15625 L 14.0625 -20.578125 L 13.640625 -20.578125 Z M 15.21875 -20.21875 L 15.515625 -20.21875 L 15.515625 -20.515625 L 15.21875 -20.515625 Z M 16.796875 -20.265625 L 17 -20.265625 L 17 -20.46875 L 16.796875 -20.46875 Z M 9.265625 -6.375 L 12.09375 -6.375 C 12.175781 -6.375 12.257812 -6.375 12.34375 -6.375 C 12.4375 -6.375 12.519531 -6.378906 12.59375 -6.390625 L 12.59375 -15.03125 L 12.15625 -15.03125 L 12.15625 -15.484375 L 12.59375 -15.484375 L 12.59375 -16.390625 L 12.03125 -16.390625 L 12.03125 -17.0625 L 12.59375 -17.0625 L 12.59375 -17.75 L 11.984375 -17.75 L 11.984375 -17.125 L 11.3125 -17.125 L 11.3125 -17.796875 L 11.921875 -17.796875 L 11.921875 -18.484375 L 11.25 -18.484375 L 11.25 -17.84375 L 10.578125 -17.84375 L 10.578125 -18.515625 L 11.1875 -18.515625 L 11.1875 -19.203125 L 10.515625 -19.203125 L 10.515625 -18.578125 L 9.828125 -18.578125 L 9.828125 -19.265625 L 10.46875 -19.265625 L 10.46875 -19.9375 L 9.796875 -19.9375 L 9.796875 -19.328125 L 9.265625 -19.328125 L 9.265625 -18.421875 L 9.671875 -18.421875 L 9.671875 -17.96875 L 9.265625 -17.96875 Z M 11.34375 -19.359375 L 11.828125 -19.359375 L 11.828125 -19.828125 L 11.34375 -19.828125 Z M 12.90625 -19.359375 L 13.3125 -19.359375 L 13.3125 -19.765625 L 12.90625 -19.765625 Z M 14.421875 -19.359375 L 14.828125 -19.359375 L 14.828125 -19.765625 L 14.421875 -19.765625 Z M 16 -19.421875 L 16.28125 -19.421875 L 16.28125 -19.703125 L 16 -19.703125 Z M 17.578125 -19.46875 L 17.78125 -19.46875 L 17.78125 -19.671875 L 17.578125 -19.671875 Z M 12.09375 -18.625 L 12.5625 -18.625 L 12.5625 -19.109375 L 12.09375 -19.109375 Z M 13.34375 -6.4375 C 14.75 -6.59375 15.957031 -7.007812 16.96875 -7.6875 C 17.988281 -8.363281 18.773438 -9.257812 19.328125 -10.375 C 19.878906 -11.5 20.15625 -12.804688 20.15625 -14.296875 C 20.15625 -14.941406 20.097656 -15.546875 19.984375 -16.109375 C 19.878906 -16.679688 19.734375 -17.210938 19.546875 -17.703125 C 19.078125 -17.929688 18.53125 -18.097656 17.90625 -18.203125 C 17.289062 -18.316406 16.503906 -18.375 15.546875 -18.375 L 13.34375 -18.375 Z M 9.953125 -17.234375 L 9.953125 -17.6875 L 10.40625 -17.6875 L 10.40625 -17.234375 Z M 10.671875 -16.5 L 10.671875 -16.96875 L 11.140625 -16.96875 L 11.140625 -16.5 Z M 11.40625 -15.78125 L 11.40625 -16.234375 L 11.859375 -16.234375 L 11.859375 -15.78125 Z M 10.078125 -15.875 L 10.078125 -16.109375 L 10.3125 -16.109375 L 10.3125 -15.875 Z M 10.796875 -15.15625 L 10.796875 -15.390625 L 11.015625 -15.390625 L 11.015625 -15.15625 Z M 11.53125 -14.421875 L 11.53125 -14.65625 L 11.765625 -14.65625 L 11.765625 -14.421875 Z M 12.25 -13.6875 L 12.25 -13.90625 L 12.484375 -13.90625 L 12.484375 -13.6875 Z M 27.78125 -12.984375 L 27.78125 -13.171875 L 27.96875 -13.171875 L 27.96875 -12.984375 Z M 28.515625 -12.265625 L 28.515625 -12.4375 L 28.703125 -12.4375 L 28.703125 -12.265625 Z M 27.765625 -11.515625 L 27.765625 -11.734375 L 27.984375 -11.734375 L 27.984375 -11.515625 Z M 29.25 -11.53125 L 29.25 -11.71875 L 29.421875 -11.71875 L 29.421875 -11.53125 Z M 28.5 -10.78125 L 28.5 -11 L 28.71875 -11 L 28.71875 -10.78125 Z M 29.96875 -10.796875 L 29.96875 -10.984375 L 30.15625 -10.984375 L 30.15625 -10.796875 Z M 27.734375 -10.015625 L 27.734375 -10.3125 L 28.03125 -10.3125 L 28.03125 -10.015625 Z M 29.21875 -10.046875 L 29.21875 -10.28125 L 29.46875 -10.28125 L 29.46875 -10.046875 Z M 26.984375 -9.265625 L 26.984375 -9.609375 L 27.3125 -9.609375 L 27.3125 -9.265625 Z M 28.453125 -9.28125 L 28.453125 -9.59375 L 28.75 -9.59375 L 28.75 -9.28125 Z M 29.953125 -9.328125 L 29.953125 -9.546875 L 30.171875 -9.546875 L 30.171875 -9.328125 Z M 27.703125 -8.515625 L 27.703125 -8.875 L 28.046875 -8.875 L 28.046875 -8.515625 Z M 29.203125 -8.5625 L 29.203125 -8.84375 L 29.484375 -8.84375 L 29.484375 -8.5625 Z M 26.9375 -7.765625 L 26.9375 -8.171875 L 27.359375 -8.171875 L 27.359375 -7.765625 Z M 28.4375 -7.8125 L 28.4375 -8.15625 L 28.78125 -8.15625 L 28.78125 -7.8125 Z M 29.9375 -7.828125 L 29.9375 -8.109375 L 30.21875 -8.109375 L 30.21875 -7.828125 Z M 26.1875 -7 L 26.1875 -7.484375 L 26.65625 -7.484375 L 26.65625 -7 Z M 27.6875 -7.046875 L 27.6875 -7.4375 L 28.09375 -7.4375 L 28.09375 -7.046875 Z M 29.171875 -7.0625 L 29.171875 -7.421875 L 29.5 -7.421875 L 29.5 -7.0625 Z M 26.921875 -6.296875 L 26.921875 -6.734375 L 27.375 -6.734375 L 27.375 -6.296875 Z M 28.390625 -6.3125 L 28.390625 -6.71875 L 28.8125 -6.71875 L 28.8125 -6.3125 Z M 26.15625 -5.53125 L 26.15625 -6.046875 L 26.671875 -6.046875 L 26.671875 -5.53125 Z M 27.640625 -5.546875 L 27.640625 -6.03125 L 28.109375 -6.03125 L 28.109375 -5.546875 Z M 29.140625 -5.578125 L 29.140625 -5.984375 L 29.546875 -5.984375 L 29.546875 -5.578125 Z M 25.40625 -4.78125 L 25.40625 -5.34375 L 25.984375 -5.34375 L 25.984375 -4.78125 Z M 26.875 -4.796875 L 26.875 -5.3125 L 27.40625 -5.3125 L 27.40625 -4.796875 Z M 28.375 -4.8125 L 28.375 -5.28125 L 28.84375 -5.28125 L 28.84375 -4.8125 Z M 24.640625 -4.015625 L 24.640625 -4.625 L 25.265625 -4.625 L 25.265625 -4.015625 Z M 26.125 -4.03125 L 26.125 -4.609375 L 26.703125 -4.609375 L 26.703125 -4.03125 Z M 27.625 -4.0625 L 27.625 -4.59375 L 28.125 -4.59375 L 28.125 -4.0625 Z M 23.890625 -3.25 L 23.890625 -3.9375 L 24.5625 -3.9375 L 24.5625 -3.25 Z M 25.359375 -3.28125 L 25.359375 -3.90625 L 26 -3.90625 L 26 -3.28125 Z M 26.859375 -3.296875 L 26.859375 -3.875 L 27.4375 -3.875 L 27.4375 -3.296875 Z M 28.359375 -3.34375 L 28.359375 -3.859375 L 28.875 -3.859375 L 28.875 -3.34375 Z M 22.4375 -2.515625 L 23.125 -2.515625 L 23.125 -3.21875 L 22.59375 -3.21875 L 22.4375 -3.09375 Z M 24.609375 -2.515625 L 24.609375 -3.203125 L 25.296875 -3.203125 L 25.296875 -2.515625 Z M 26.109375 -2.546875 L 26.109375 -3.171875 L 26.734375 -3.171875 L 26.734375 -2.546875 Z M 27.59375 -2.578125 L 27.59375 -3.15625 L 28.171875 -3.15625 L 28.171875 -2.578125 Z M 23.171875 -1.796875 L 23.84375 -1.796875 L 23.84375 -2.5 L 23.171875 -2.5 Z M 25.34375 -1.78125 L 25.34375 -2.484375 L 26.015625 -2.484375 L 26.015625 -1.78125 Z M 21.734375 -1.828125 L 22.375 -1.828125 L 22.375 -2.453125 L 21.734375 -2.453125 Z M 26.84375 -1.828125 L 26.84375 -2.4375 L 27.453125 -2.4375 L 27.453125 -1.828125 Z M 20.59375 -1.796875 L 20.84375 -1.796875 L 20.84375 -1.953125 Z M 22.453125 -1.109375 L 23.09375 -1.109375 L 23.09375 -1.734375 L 22.453125 -1.734375 Z M 26.078125 -1.0625 L 26.078125 -1.734375 L 26.765625 -1.734375 L 26.765625 -1.0625 Z M 21.015625 -1.125 L 21.609375 -1.125 L 21.609375 -1.703125 L 21.015625 -1.703125 Z M 19.609375 -1.140625 L 20.125 -1.140625 L 20.125 -1.53125 L 19.609375 -1.265625 Z M 24.625 -0.34375 L 25.328125 -0.34375 L 25.328125 -1.03125 L 24.625 -1.03125 Z M 23.1875 -0.375 L 23.828125 -0.375 L 23.828125 -1 L 23.1875 -1 Z M 21.765625 -0.390625 L 22.328125 -0.390625 L 22.328125 -0.984375 L 21.765625 -0.984375 Z M 20.328125 -0.4375 L 20.859375 -0.4375 L 20.859375 -0.9375 L 20.328125 -0.9375 Z M 18.890625 -0.453125 L 19.359375 -0.453125 L 19.359375 -0.921875 L 18.890625 -0.921875 Z M 17.5 -0.4375 L 17.890625 -0.4375 L 17.890625 -0.546875 Z M 25.34375 0.390625 L 25.921875 0.390625 L 26.046875 0.28125 L 26.046875 -0.3125 L 25.34375 -0.3125 Z M 23.9375 0.375 L 24.5625 0.375 L 24.5625 -0.265625 L 23.9375 -0.265625 Z M 22.5 0.328125 L 23.0625 0.328125 L 23.0625 -0.25 L 22.5 -0.25 Z M 21.0625 0.3125 L 21.578125 0.3125 L 21.578125 -0.21875 L 21.0625 -0.21875 Z M 19.625 0.28125 L 20.09375 0.28125 L 20.09375 -0.1875 L 19.625 -0.1875 Z M 18.1875 0.25 L 18.609375 0.25 L 18.609375 -0.15625 L 18.1875 -0.15625 Z M 16.765625 0.21875 L 17.109375 0.21875 L 17.109375 -0.140625 L 16.765625 -0.140625 Z M 15.328125 0.1875 L 15.625 0.1875 L 15.625 0.046875 L 15.328125 0.109375 Z M 24.640625 1.078125 L 25.015625 1.078125 L 25.28125 0.90625 L 25.28125 0.453125 L 24.640625 0.453125 Z M 23.21875 1.0625 L 23.8125 1.0625 L 23.8125 0.484375 L 23.21875 0.484375 Z M 21.78125 1.046875 L 22.3125 1.046875 L 22.3125 0.515625 L 21.78125 0.515625 Z M 20.359375 1 L 20.8125 1 L 20.8125 0.53125 L 20.359375 0.53125 Z M 18.9375 0.984375 L 19.34375 0.984375 L 19.34375 0.578125 L 18.9375 0.578125 Z M 17.5 0.9375 L 17.84375 0.9375 L 17.84375 0.59375 L 17.5 0.59375 Z M 16.0625 0.921875 L 16.34375 0.921875 L 16.34375 0.609375 L 16.0625 0.609375 Z M 14.625 0.90625 L 14.875 0.90625 L 14.875 0.65625 L 14.625 0.65625 Z M 13.1875 0.859375 L 13.375 0.859375 L 13.375 0.671875 L 13.1875 0.671875 Z M 23.953125 1.765625 L 24.53125 1.40625 L 24.53125 1.203125 L 23.953125 1.203125 Z M 22.515625 1.765625 L 23.046875 1.765625 L 23.046875 1.25 L 22.515625 1.25 Z M 21.078125 1.734375 L 21.546875 1.734375 L 21.546875 1.265625 L 21.078125 1.265625 Z M 19.65625 1.703125 L 20.0625 1.703125 L 20.0625 1.296875 L 19.65625 1.296875 Z M 18.21875 1.6875 L 18.578125 1.6875 L 18.578125 1.328125 L 18.21875 1.328125 Z M 16.78125 1.65625 L 17.09375 1.65625 L 17.09375 1.359375 L 16.78125 1.359375 Z M 15.359375 1.625 L 15.59375 1.625 L 15.59375 1.375 L 15.359375 1.375 Z M 13.9375 1.59375 L 14.109375 1.59375 L 14.109375 1.40625 L 13.9375 1.40625 Z M 23.25 2.125 L 23.578125 1.96875 L 23.25 1.96875 Z M 21.8125 2.453125 L 22.296875 2.453125 L 22.296875 2.015625 L 21.8125 2.015625 Z M 20.390625 2.4375 L 20.796875 2.4375 L 20.796875 2.03125 L 20.390625 2.03125 Z M 18.953125 2.421875 L 19.296875 2.421875 L 19.296875 2.046875 L 18.953125 2.046875 Z M 17.515625 2.375 L 17.828125 2.375 L 17.828125 2.09375 L 17.515625 2.09375 Z M 16.078125 2.359375 L 16.328125 2.359375 L 16.328125 2.109375 L 16.078125 2.109375 Z M 14.65625 2.328125 L 14.828125 2.328125 L 14.828125 2.15625 L 14.65625 2.15625 Z M 21.125 2.984375 L 21.53125 2.84375 L 21.53125 2.765625 L 21.125 2.765625 Z M 19.6875 3.140625 L 20.03125 3.140625 L 20.03125 2.78125 L 19.6875 2.78125 Z M 18.25 3.109375 L 18.546875 3.109375 L 18.546875 2.8125 L 18.25 2.8125 Z M 16.828125 3.09375 L 17.0625 3.09375 L 17.0625 2.84375 L 16.828125 2.84375 Z M 15.390625 3.046875 L 15.578125 3.046875 L 15.578125 2.875 L 15.390625 2.875 Z M 17.5625 3.640625 L 17.78125 3.625 L 17.78125 3.546875 L 17.5625 3.546875 Z M 16.125 3.703125 L 16.3125 3.703125 L 16.3125 3.609375 L 16.125 3.609375 Z M 16.125 3.703125 "/></g></g></g><g fill="#ffffff" fill-opacity="1" data-darkreader-inline-fill="" style="--darkreader-inline-fill: #e8e6e3;"><g transform="translate(0.0586275, 203.241962)"><g/></g></g><g fill="#ffffff" fill-opacity="1" data-darkreader-inline-fill="" style="--darkreader-inline-fill: #181a1b;"><g transform="translate(10.962499, 203.241962)"><g><path d="M 56.5625 -38.546875 L 47.71875 -38.546875 L 47.71875 -37.859375 L 51.734375 -37.859375 L 42.28125 -8.375 L 42.109375 -8.375 L 31.375 -37.859375 L 35.390625 -37.859375 L 35.390625 -38.546875 L 21.34375 -38.546875 L 21.34375 -37.859375 L 25.359375 -37.859375 L 26.90625 -33.609375 L 18.8125 -8.4375 L 18.640625 -8.4375 L 7.921875 -37.859375 L 11.9375 -37.859375 L 11.9375 -38.546875 L -2.125 -38.546875 L -2.125 -37.859375 L 1.890625 -37.859375 L 16.0625 0.859375 L 16.578125 0.859375 L 27.25 -32.125 L 27.421875 -32.125 L 39.515625 0.859375 L 40.03125 0.859375 L 52.546875 -37.859375 L 56.5625 -37.859375 Z M 56.5625 -38.546875 "/></g></g></g><g fill="#ffffff" fill-opacity="1" data-darkreader-inline-fill="" style="--darkreader-inline-fill: #e8e6e3;"><g transform="translate(67.1147, 203.241962)"><g><path d="M 25.46875 -1.546875 C 24.78125 -0.921875 23.96875 -0.40625 23.0625 -0.40625 C 21.34375 -0.40625 20.359375 -1.609375 20.359375 -3.390625 L 20.359375 -14.5625 C 20.359375 -19.96875 16.171875 -22.828125 11.640625 -22.828125 C 7.625 -22.828125 3.046875 -20.484375 3.046875 -16.46875 C 3.046875 -14.90625 3.953125 -13.1875 5.84375 -13.1875 C 7.453125 -13.1875 8.375 -14.390625 8.375 -15.484375 C 8.375 -16.46875 8.03125 -17.03125 7.6875 -17.546875 C 7.34375 -18.0625 6.9375 -18.578125 6.9375 -19.328125 C 6.9375 -20.484375 8.828125 -22.078125 11.46875 -22.078125 C 14.171875 -22.078125 15.71875 -20.53125 15.71875 -17.71875 L 15.71875 -12.796875 C 14.6875 -11.59375 12.328125 -10.890625 9.6875 -10.546875 C 7.625 -10.328125 6.015625 -10.265625 4.46875 -9.75 C 2.125 -9 1.4375 -7.40625 1.4375 -5.5 C 1.4375 -1.375 4.765625 0.625 8.78125 0.625 C 12.796875 0.625 14.734375 -1.609375 15.828125 -3.78125 L 15.953125 -3.78125 C 16.6875 -0.75 19.84375 0.578125 22.203125 0.578125 C 23.28125 0.578125 24.84375 0.0625 25.8125 -1.09375 Z M 15.71875 -7.34375 C 15.71875 -1.890625 11.765625 -0.234375 9.6875 -0.234375 C 7.6875 -0.234375 6.484375 -1.65625 6.484375 -4.421875 C 6.484375 -8.09375 8.4375 -9.234375 10.609375 -9.8125 C 12.453125 -10.265625 13.828125 -10.671875 15.609375 -11.640625 L 15.71875 -11.59375 Z M 15.71875 -7.34375 "/></g></g></g><g fill="#ffffff" fill-opacity="1" data-darkreader-inline-fill="" style="--darkreader-inline-fill: #e8e6e3;"><g transform="translate(93.728209, 203.241962)"><g><path d="M 20.875 -17.15625 C 20.875 -21 17.84375 -22.765625 15.828125 -22.765625 C 13.015625 -22.765625 10.5 -20.828125 8.828125 -17.546875 L 8.65625 -17.609375 L 8.65625 -22.03125 L 0.96875 -22.03125 L 0.96875 -21.28125 L 3.84375 -21.28125 L 3.84375 -0.6875 L 0.96875 -0.6875 L 0.96875 0 L 11.53125 0 L 11.53125 -0.6875 L 8.65625 -0.6875 L 8.65625 -12.109375 C 8.65625 -17.609375 12.5625 -21.859375 14.796875 -21.859375 C 15.828125 -21.859375 16.34375 -21.34375 16.34375 -20.59375 C 16.34375 -20.015625 16.171875 -19.328125 15.890625 -18.578125 C 15.609375 -17.84375 15.375 -17.03125 15.375 -16.234375 C 15.375 -14.859375 16.40625 -13.484375 18.0625 -13.484375 C 19.609375 -13.484375 20.875 -15.03125 20.875 -17.15625 Z M 20.875 -17.15625 "/></g></g></g><g fill="#ffffff" fill-opacity="1" data-darkreader-inline-fill="" style="--darkreader-inline-fill: #e8e6e3;"><g transform="translate(116.326744, 203.241962)"><g><path d="M 20.875 -17.15625 C 20.875 -21 17.84375 -22.765625 15.828125 -22.765625 C 13.015625 -22.765625 10.5 -20.828125 8.828125 -17.546875 L 8.65625 -17.609375 L 8.65625 -22.03125 L 0.96875 -22.03125 L 0.96875 -21.28125 L 3.84375 -21.28125 L 3.84375 -0.6875 L 0.96875 -0.6875 L 0.96875 0 L 11.53125 0 L 11.53125 -0.6875 L 8.65625 -0.6875 L 8.65625 -12.109375 C 8.65625 -17.609375 12.5625 -21.859375 14.796875 -21.859375 C 15.828125 -21.859375 16.34375 -21.34375 16.34375 -20.59375 C 16.34375 -20.015625 16.171875 -19.328125 15.890625 -18.578125 C 15.609375 -17.84375 15.375 -17.03125 15.375 -16.234375 C 15.375 -14.859375 16.40625 -13.484375 18.0625 -13.484375 C 19.609375 -13.484375 20.875 -15.03125 20.875 -17.15625 Z M 20.875 -17.15625 "/></g></g></g><g fill="#ffffff" fill-opacity="1" data-darkreader-inline-fill="" style="--darkreader-inline-fill: #e8e6e3;"><g transform="translate(138.925279, 203.241962)"><g><path d="M 25.46875 -1.546875 C 24.78125 -0.921875 23.96875 -0.40625 23.0625 -0.40625 C 21.34375 -0.40625 20.359375 -1.609375 20.359375 -3.390625 L 20.359375 -14.5625 C 20.359375 -19.96875 16.171875 -22.828125 11.640625 -22.828125 C 7.625 -22.828125 3.046875 -20.484375 3.046875 -16.46875 C 3.046875 -14.90625 3.953125 -13.1875 5.84375 -13.1875 C 7.453125 -13.1875 8.375 -14.390625 8.375 -15.484375 C 8.375 -16.46875 8.03125 -17.03125 7.6875 -17.546875 C 7.34375 -18.0625 6.9375 -18.578125 6.9375 -19.328125 C 6.9375 -20.484375 8.828125 -22.078125 11.46875 -22.078125 C 14.171875 -22.078125 15.71875 -20.53125 15.71875 -17.71875 L 15.71875 -12.796875 C 14.6875 -11.59375 12.328125 -10.890625 9.6875 -10.546875 C 7.625 -10.328125 6.015625 -10.265625 4.46875 -9.75 C 2.125 -9 1.4375 -7.40625 1.4375 -5.5 C 1.4375 -1.375 4.765625 0.625 8.78125 0.625 C 12.796875 0.625 14.734375 -1.609375 15.828125 -3.78125 L 15.953125 -3.78125 C 16.6875 -0.75 19.84375 0.578125 22.203125 0.578125 C 23.28125 0.578125 24.84375 0.0625 25.8125 -1.09375 Z M 15.71875 -7.34375 C 15.71875 -1.890625 11.765625 -0.234375 9.6875 -0.234375 C 7.6875 -0.234375 6.484375 -1.65625 6.484375 -4.421875 C 6.484375 -8.09375 8.4375 -9.234375 10.609375 -9.8125 C 12.453125 -10.265625 13.828125 -10.671875 15.609375 -11.640625 L 15.71875 -11.59375 Z M 15.71875 -7.34375 "/></g></g></g><g fill="#ffffff" fill-opacity="1" data-darkreader-inline-fill="" style="--darkreader-inline-fill: #181a1b;"><g transform="translate(165.538787, 203.241962)"><g><path d="M 26.90625 -0.6875 L 24.03125 -0.6875 L 24.03125 -14.34375 C 24.03125 -20.1875 21.28125 -22.828125 16.0625 -22.828125 C 12.5625 -22.828125 10.15625 -20.59375 8.78125 -18.296875 L 8.65625 -18.359375 L 8.65625 -22.03125 L 0.96875 -22.03125 L 0.96875 -21.34375 L 3.84375 -21.34375 L 3.84375 -0.6875 L 0.96875 -0.6875 L 0.96875 0 L 11.53125 0 L 11.53125 -0.6875 L 8.65625 -0.6875 L 8.65625 -13.875 C 8.65625 -18.40625 12.109375 -21.90625 14.90625 -21.90625 C 17.03125 -21.90625 19.21875 -20.828125 19.21875 -16.75 L 19.21875 -0.6875 L 16.34375 -0.6875 L 16.34375 0 L 26.90625 0 Z M 26.90625 -0.6875 "/></g></g></g><g fill="#ffffff" fill-opacity="1" data-darkreader-inline-fill="" style="--darkreader-inline-fill: #181a1b;"><g transform="translate(194.446561, 203.241962)"><g><path d="M 13.765625 -6.765625 C 13.59375 -1.828125 11.1875 -0.171875 9.515625 -0.171875 C 8.140625 -0.171875 7.796875 -1.546875 7.796875 -2.703125 L 7.796875 -21.21875 L 11.8125 -21.21875 L 11.8125 -22.03125 L 7.796875 -22.03125 L 7.796875 -32.171875 L 7.515625 -32.296875 C 6.3125 -31.3125 4.53125 -30.109375 2.984375 -29.25 L 2.984375 -22.03125 L 0.109375 -22.03125 L 0.109375 -21.21875 L 2.984375 -21.21875 L 2.984375 -6.1875 C 2.984375 -0.75 5.5 0.75 8.71875 0.75 C 12.90625 0.75 14.34375 -2.984375 14.453125 -6.71875 Z M 13.765625 -6.765625 "/></g></g></g><g fill="#ffffff" fill-opacity="1" data-darkreader-inline-fill="" style="--darkreader-inline-fill: #181a1b;"><g transform="translate(210.793208, 203.241962)"><g><path d="M 23.40625 -22.03125 L 16.859375 -22.03125 L 16.859375 -21.34375 L 19.734375 -21.34375 L 13.65625 -6.140625 L 13.359375 -6.140625 L 6.828125 -21.34375 L 9.6875 -21.34375 L 9.6875 -22.03125 L -1.140625 -22.03125 L -1.140625 -21.34375 L 1.71875 -21.34375 L 10.953125 0.34375 L 6.828125 10.671875 C 5.28125 14.5625 3.046875 15.03125 1.890625 15.03125 C 1.203125 15.03125 0.75 14.90625 0.40625 14.5625 C -0.0625 14.109375 0.0625 13.59375 0.515625 13.1875 C 1.140625 12.671875 1.546875 11.9375 1.546875 10.71875 C 1.546875 9.6875 0.75 8.546875 -0.453125 8.546875 C -2.125 8.546875 -2.875 9.984375 -2.875 11.359375 C -2.875 13.3125 -0.921875 15.78125 1.609375 15.78125 C 4.59375 15.78125 6.1875 14.28125 7.859375 10.09375 L 20.53125 -21.34375 L 23.40625 -21.34375 Z M 23.40625 -22.03125 "/></g></g></g><g fill="#ffffff" fill-opacity="1" data-darkreader-inline-fill="" style="--darkreader-inline-fill: #e8e6e3;"><g transform="translate(236.145033, 203.241962)"><g/></g></g><path stroke-linecap="butt" transform="matrix(-0.262549, -0.702544, 0.702544, -0.262549, 254.597097, 224.806024)" fill="none" stroke-linejoin="miter" d="M -0.00299366 1.500918 L 107.880367 1.501627 " stroke="#ffffff" stroke-width="3" stroke-opacity="1" stroke-miterlimit="4" data-darkreader-inline-stroke="" style="--darkreader-inline-stroke: #e8e6e3;"/></svg>